<?xml version="1.0" encoding="UTF-8" standalone="no"?>
<!-- Created with Inkscape (http://www.inkscape.org/) -->

<svg
   version="1.1"
   id="svg2"
   width="1753.08"
   height="741.71997"
   viewBox="0 0 1753.08 741.71997"
   sodipodi:docname="Bonelab_final_v2_color.eps"
   xmlns:inkscape="http://www.inkscape.org/namespaces/inkscape"
   xmlns:sodipodi="http://sodipodi.sourceforge.net/DTD/sodipodi-0.dtd"
   xmlns="http://www.w3.org/2000/svg"
   xmlns:svg="http://www.w3.org/2000/svg">
  <defs
     id="defs6" />
  <sodipodi:namedview
     id="namedview4"
     pagecolor="#ffffff"
     bordercolor="#000000"
     borderopacity="0.25"
     inkscape:showpageshadow="2"
     inkscape:pageopacity="0.0"
     inkscape:pagecheckerboard="0"
     inkscape:deskcolor="#d1d1d1" />
  <g
     id="g8"
     inkscape:groupmode="layer"
     inkscape:label="ink_ext_XXXXXX"
     transform="matrix(1.3333333,0,0,-1.3333333,0,741.72)">
    <g
       id="g10"
       transform="scale(0.1)">
      <path
         d="m 3142.34,5562.92 c 28.1,-495.1 183.49,-672.07 280.44,-788.29 28.39,-34.03 50.81,-59.47 62.62,-85.41 64.68,-156.49 72.55,-278.88 24.41,-385.78 -48.94,-83.93 -49.29,-185.3 -1.08,-310.58 14.04,-36.33 -42.69,-161.54 -129.44,-209.72 -131.82,-33.66 -258.45,-27.5 -397.94,19.18 -104.04,76.35 -180.55,113.44 -240.39,116.4 -28.88,5.19 -50.84,27.57 -67.12,68.3 l -2.57,6.43 -5.54,4.14 c -46.02,34.29 -91.11,48.07 -135.83,48.07 -87.68,0 -174.03,-52.9 -263.7,-107.82 -53.61,-32.84 -109.05,-66.8 -168.46,-92.38 l -4.5,-1.94 -3.41,-3.53 c -109.51,-113.23 -281.7,-146.41 -511.81,-98.54 -25.34,5.37 -84.92,18.01 -92.41,272.6 l -0.19,6.38 -3.28,5.48 c -64.83,108.32 -88.51,232.89 -72.4,380.83 l 0.66,5.52 -2.27,5.12 c -70.67,176.93 -33.6,301.15 120.19,405.25 l 1.14,-1.37 c 160.42,122.53 322.03,256.47 417.51,479.04 39.58,91.9 75.36,177.57 107.58,262.61 l 1087.79,0.01"
         style="fill:#4b5859;fill-opacity:1;fill-rule:nonzero;stroke:none"
         id="path12" />
      <path
         d="m 3659.17,2877.31 -2.08,2.06 -1.65,2.33 c -37.29,49.68 -71.56,89.33 -102.65,118.86 -34.97,-62.91 -88.06,-111.04 -153.69,-138.97 -117.14,-94.89 -205.33,-208.67 -259.72,-333.86 l 1.88,-2.39 c 42.63,-52.86 72.15,-132.06 87.76,-235.13 l 0.28,-3.81 c 0.49,-97.69 2.67,-188.57 4.78,-275.95 5.13,-212.81 9.56,-407.11 -12.98,-597.92 -78.71,-575.229 -81.02,-758.35 -81.4,-1112.87 h 236.03 c 34.54,922.65 107.59,1426.94 223.21,2000.68 l 0.21,7.85 c 40.07,164.17 83.66,214.39 115.49,249.34 11.19,12.28 19.47,22.55 25.29,34.61 22.61,128.12 -3.08,219.18 -80.76,285.17"
         style="fill:#4b5859;fill-opacity:1;fill-rule:nonzero;stroke:none"
         id="path14" />
      <path
         d="m 3555.98,3589.12 c -11.26,14.41 -35.89,22.24 -73.48,23.23 -12.5,0.39 -43.94,-5.69 -80.19,-12.85 -148.56,-29.35 -425.13,-84 -569.95,70.16 -53.4,53.31 -110.8,104.83 -170.72,125.2 -22.6,-28.79 -50.49,-46.08 -83.09,-51.47 -58.25,-9.59 -127.98,18.3 -218.49,87.65 -10.88,-12.26 -22.41,-28.14 -35.16,-45.68 -84.3,-116.12 -225.38,-310.47 -706.26,-225.03 -19.89,3.84 -45.92,5.9 -57.05,-6.02 -6.8,-7.27 -15.85,-28.38 -0.27,-87.43 9.44,-31.78 17.61,-61.54 24.85,-89.63 53.56,-1.65 107.36,-7.29 161.05,-17.05 282.03,-51.25 527.22,-209.26 690.4,-444.92 163.19,-235.67 224.83,-520.77 173.58,-802.79 -51.25,-282.04 -209.26,-527.23 -444.92,-690.41 -26.83,-18.58 -54.32,-35.81 -82.36,-51.74 24.29,-427.211 27.75,-711.871 9.93,-1070.68 h 576.96 c 28.5,913.56 132.44,1476.55 308.98,2138.67 49.44,196.8 169.09,379.72 345.98,521.78 l 3.52,5.28 4.29,2.61 c 56.17,18.15 99.78,59.17 122.85,114.52 46.01,108.52 75.11,220.99 84.16,324.66 l 0.17,1.61 c 3,20.29 7.55,40.83 11.95,60.62 11.01,49.59 21.42,96.46 3.27,119.71"
         style="fill:#4b5859;fill-opacity:1;fill-rule:nonzero;stroke:none"
         id="path16" />
      <path
         d="m 1165.97,2290.71 c 9.74,2.92 7.76,-7.87 19.65,-4.18 11.9,3.68 14.03,8.82 23.02,1.05 8.99,-7.77 12.19,-8.8 9.97,-25.49 -2.22,-16.71 -20.16,-23.32 -24.99,-25.55 -4.84,-2.23 -7.05,-6.13 -16.05,1.65 -8.99,7.77 -23.69,17.62 -25.89,22.37 -5.48,14.25 4.55,27.22 14.29,30.15 z m 66.27,213.08 c 20.91,13.19 38.5,4.38 45.47,-5.1 6.97,-9.49 15.96,-53.81 -5.42,-62.32 -41.12,-19.05 -51.99,12.6 -51.99,12.6 0,0 -8.98,41.63 11.94,54.82 z m 59.29,-498.95 c 0.96,-6.14 8.83,-14.03 -1.84,-19.67 -10.68,-5.63 -18.96,-2.54 -18.96,-2.54 0,0 -17.86,9.8 -21.14,24.07 -2.29,9.95 4.19,11.57 7.58,9.2 11.95,-1.38 8.55,10.78 21.24,4.88 12.69,-5.89 12.16,-9.8 13.12,-15.94 z m -3.43,696.2 c 0,0 0.51,109.77 38.04,130.51 37.53,20.74 117.4,-28.7 117.4,-28.7 20.86,-47.27 -6.24,-55.9 38.23,-111.55 -7.1,-69.56 -51.51,-78.43 -107.48,-68.51 -61.92,15.48 -88.75,42.17 -86.19,78.25 z m 239.65,-448.79 c -10.47,-40.77 -94.06,-97.45 -94.06,-97.45 0,0 -62.68,-9.17 -84.09,41.73 -21.4,50.9 8.99,73.85 32.83,102.18 23.84,28.32 33.95,55.47 33.95,55.47 0,0 17.16,51.43 33.85,14.23 16.69,-37.2 87.98,-75.39 77.52,-116.16 z m 32.87,281.95 c 51.14,46.21 103.65,30.41 127.32,7.68 23.67,-22.72 69.52,-140.13 14.84,-173.71 -103.82,-71.95 -148.77,9.77 -148.77,9.77 0,0 -44.53,110.05 6.61,156.26 z m 29.68,-590.15 c 0,0 -5.42,-17.58 -34.17,-61.71 -28.74,-44.13 -69.6,-29.28 -69.6,-29.28 -88.14,57.63 -98.36,95.72 -65.7,123.04 39.4,45.65 80.22,77.93 124.95,73.81 51.5,-12.68 56.54,-54.01 44.52,-105.86 z m -548.69,314.88 c -3.07,-50.36 21.17,-227.13 46.93,-308.8 1.91,-6.05 4.04,-11.91 6.26,-17.68 64.1,-79.49 148.81,-142.77 247.83,-180.82 l -4.7,9.03 c 0,0 -8.6,19.24 7.43,47.65 16.03,28.4 43.81,-4.59 43.81,-4.59 l 19.71,-23.62 c 0,0 27.12,-27.97 -2.18,-49.02 14.03,-3.62 28.29,-6.79 42.77,-9.41 v 0 c 84.85,-15.43 170.2,-12.3 251.37,8.31 -35.2,21.5 -63.45,48 -85.81,78.76 7.57,68.11 31.13,126.18 80.71,167.92 l 159.35,-100.51 c 0,0 16.08,-30.29 29.06,-64.34 2.79,1.87 5.59,3.72 8.35,5.65 12.74,8.82 25.05,18.08 36.96,27.75 -12.97,46.03 4.06,81.18 51.83,105.18 25.72,13.1 47.8,21.15 66.94,25.11 33.91,50.8 59.84,106.85 76.75,166.61 -6.13,-10.52 -15.71,-21.25 -29.91,-32.23 -86.56,-66.89 -165.36,-52.12 -165.36,-52.12 0,0 -149.37,13.39 -217.13,36.44 -67.77,23.05 -9.03,145.74 -9.03,145.74 l 53.48,93.86 c 0,0 59.55,109.49 182.03,76.56 122.48,-32.92 123.85,-68.65 141.94,-122.01 11.73,-34.62 50.53,-71.27 52.77,-111.01 1.53,7 2.98,14.03 4.27,21.12 9.05,49.83 11.54,99.34 8.12,147.68 -106.51,15.59 -40.93,146.57 -40.93,146.57 l 6.39,14.4 c -8.21,22.4 -17.74,44.23 -28.53,65.41 -4.07,-13.62 -12.79,-29.85 -27.99,-52.44 -44.97,-66.86 -135.84,-57.13 -161.28,-56.39 -25.45,0.72 -43.2,-11.31 -65.24,41.09 -22.04,52.4 -64.12,125.77 -63.43,150.82 0.69,25.05 -2.47,106.32 39.75,133.55 42.23,27.23 85.41,-34.72 85.41,-34.72 0,0 16.53,-50.16 75.32,-59.61 14.81,-2.38 27.17,-3.06 37.71,-3.56 -67.89,78.77 -156.71,140.17 -259.85,174.65 2.36,-24.96 -3.3,-55.92 -23.94,-93.7 -57.86,-69.68 -125.06,-15.21 -125.06,-15.21 0,0 -91.45,57.84 -68.63,138.98 -109.39,-5.24 -215.39,-40.84 -307.66,-104.73 -36.98,-25.61 -70.49,-54.89 -100.17,-87.24 8.48,-1.53 15.28,-5.65 15.28,-5.65 0,0 25.3,-17.28 1.33,-47.41 -17.78,-15.15 -32.46,1.66 -32.46,1.66 0,0 -8.54,7.77 -12.16,18.52 -41.35,-52.33 -73.52,-111.38 -95.168,-175.15 33.978,-76.91 49.468,-192.5 46.758,-237.05"
         style="fill:#4b5859;fill-opacity:1;fill-rule:nonzero;stroke:none"
         id="path18" />
      <path
         d="m 1427.52,1600.92 c -388.49,70.6 -646.196,442.76 -575.602,831.25 70.598,388.5 442.762,646.2 831.252,575.61 388.5,-70.6 646.21,-442.76 575.61,-831.25 -70.6,-388.5 -442.76,-646.2 -831.26,-575.61 z m 297.75,1638.54 c -516.44,93.85 -1011.188,-248.74 -1105.036,-765.19 -57.867,-318.43 50.25,-628.58 262.692,-841.63 l -140.09,-179.43 c -65.938,38.71 -158.145,17.36 -217.746,-48.08 L 57.6016,799 C -15.4648,703.242 -32.7305,631.191 87.5977,500.262 207.926,369.34 338.793,365.199 436.48,453.719 L 931.555,1081.8 c 55.441,76.89 39.539,180 -0.028,222.5 l 140.603,180.09 -6.82,5.38 c 95.85,-57.67 203.53,-99.35 320.11,-120.54 516.46,-93.84 1011.2,248.74 1105.04,765.19 93.85,516.45 -248.74,1011.2 -765.19,1105.04"
         style="fill:#e79d28;fill-opacity:1;fill-rule:nonzero;stroke:none"
         id="path20" />
      <path
         d="m 4632.47,4172.38 c 69.09,-5.45 147.27,-7.27 229.07,-7.27 229.07,0 363.61,69.09 363.61,221.8 0,150.89 -130.9,225.43 -343.61,225.43 h -249.07 z m 0,583.58 h 249.07 c 169.08,0 278.16,67.27 278.16,199.99 0,147.25 -134.53,209.07 -341.79,209.07 -70.9,0 -129.08,-1.82 -185.44,-12.73 z m 498.14,-63.62 c 154.53,-38.18 263.61,-125.45 263.61,-307.25 0,-261.79 -227.25,-365.42 -519.95,-365.42 -147.26,0 -292.7,3.64 -407.23,14.54 v 1243.52 c 107.26,20 214.52,30.91 352.69,30.91 294.52,0 507.22,-92.72 507.22,-330.88 0,-147.26 -79.99,-245.43 -196.34,-278.15 v -7.27"
         style="fill:#4b5859;fill-opacity:1;fill-rule:nonzero;stroke:none"
         id="path22" />
      <path
         d="m 5975.99,4130.57 c 169.07,0 252.7,130.9 252.7,349.05 0,199.99 -92.72,323.61 -252.7,323.61 -170.9,0 -254.53,-125.44 -254.53,-323.61 0,-219.97 85.45,-349.05 254.53,-349.05 z m 414.5,349.05 c 0,-316.33 -158.17,-487.22 -414.5,-487.22 -269.07,0 -416.33,163.62 -416.33,487.22 0,290.89 163.63,461.78 416.33,461.78 252.7,0 414.5,-161.81 414.5,-461.78"
         style="fill:#4b5859;fill-opacity:1;fill-rule:nonzero;stroke:none"
         id="path24" />
      <path
         d="m 6792.28,4037.85 c -16.37,-9.09 -40,-12.72 -78.18,-12.72 -38.18,0 -63.63,3.63 -80,12.72 v 856.28 c 30.91,16.37 78.19,25.46 129.08,25.46 l 10.91,-136.36 h 7.28 c 40,83.63 130.89,158.17 301.78,158.17 143.63,0 305.43,-50.9 305.43,-345.42 v -558.13 c -16.36,-9.09 -40,-12.72 -78.18,-12.72 -38.17,0 -63.62,3.63 -79.99,12.72 v 527.22 c 0,139.99 -45.45,229.07 -196.35,229.07 -129.07,0 -203.61,-67.26 -241.78,-139.98 v -616.31"
         style="fill:#4b5859;fill-opacity:1;fill-rule:nonzero;stroke:none"
         id="path26" />
      <path
         d="m 8244.87,4550.53 c 12.73,119.99 -25.46,254.52 -201.8,254.52 -154.53,0 -247.25,-101.81 -259.97,-254.52 z m -463.6,-132.72 c 7.27,-198.16 130.9,-281.79 327.25,-281.79 110.89,0 203.62,27.27 274.52,69.09 5.46,-50.91 -14.54,-118.17 -40,-147.26 -56.36,-34.54 -150.89,-65.45 -270.88,-65.45 -292.7,0 -454.5,181.8 -454.5,465.41 0,281.79 163.61,483.59 432.68,483.59 239.98,0 350.88,-156.35 350.88,-376.33 0,-54.54 -7.27,-103.62 -21.82,-147.26 h -598.13"
         style="fill:#4b5859;fill-opacity:1;fill-rule:nonzero;stroke:none"
         id="path28" />
      <path
         d="m 4467.04,3487.88 c 16.36,9.09 43.63,12.72 83.62,12.72 40,0 65.45,-3.63 81.81,-12.72 V 2242.54 c -16.36,-9.09 -41.81,-12.72 -81.81,-12.72 -39.99,0 -67.26,3.63 -83.62,12.72 v 1245.34"
         style="fill:#4b5859;fill-opacity:1;fill-rule:nonzero;stroke:none"
         id="path30" />
      <path
         d="m 5126.95,2242.54 c -16.35,-9.09 -39.99,-12.72 -78.17,-12.72 -38.18,0 -63.63,3.63 -79.99,12.72 v 856.28 c 30.91,16.37 78.17,25.46 129.08,25.46 l 10.9,-136.35 h 7.28 c 39.99,79.99 121.8,158.16 294.52,158.16 116.35,0 223.61,-32.72 274.51,-163.62 h 7.28 c 36.36,80 123.62,163.62 301.79,163.62 145.43,0 303.6,-50.9 303.6,-345.42 v -558.13 c -16.36,-9.09 -40,-12.72 -78.17,-12.72 -38.18,0 -63.63,3.63 -80,12.72 v 527.22 c 0,139.99 -45.44,229.07 -190.89,229.07 -130.89,0 -198.16,-65.45 -238.15,-141.8 1.81,-10.91 3.63,-49.08 3.63,-79.99 v -534.5 c -16.36,-9.09 -40,-12.72 -78.17,-12.72 -38.18,0 -63.63,3.63 -79.99,12.72 v 525.41 c 0,139.99 -45.46,230.88 -190.89,230.88 -127.27,0 -201.8,-67.26 -238.17,-139.99 v -616.3"
         style="fill:#4b5859;fill-opacity:1;fill-rule:nonzero;stroke:none"
         id="path32" />
      <path
         d="m 7064.96,2613.41 c -45.45,16.37 -96.36,27.28 -158.17,27.28 -150.89,0 -229.07,-67.27 -229.07,-163.62 0,-94.54 76.36,-136.35 174.53,-136.35 78.18,0 165.44,25.45 212.71,94.53 z m 3.63,-309.06 c -52.72,-69.08 -136.34,-107.25 -256.33,-107.25 -156.35,0 -292.7,74.54 -292.7,272.69 0,212.72 158.16,299.97 363.59,299.97 60,0 129.09,-7.26 181.81,-29.08 v 47.27 c 0,150.89 -58.17,214.52 -199.98,214.52 -103.63,0 -201.81,-32.72 -278.15,-79.99 -12.74,45.45 -7.28,116.35 18.17,158.16 61.82,36.36 169.08,65.45 289.06,65.45 216.35,0 327.25,-92.72 327.25,-341.78 v -396.33 c 0,-52.72 27.27,-67.26 63.63,-67.26 34.54,0 67.27,12.72 85.44,25.45 3.64,-47.27 -7.26,-103.63 -30.9,-136.35 -30.91,-18.18 -70.91,-32.72 -119.99,-32.72 -81.81,0 -129.08,39.99 -143.62,107.25 h -7.28"
         style="fill:#4b5859;fill-opacity:1;fill-rule:nonzero;stroke:none"
         id="path34" />
      <path
         d="m 7839.43,2624.32 c 130.9,0 201.81,74.54 201.81,196.35 0,121.81 -72.72,192.7 -201.81,192.7 -132.7,0 -199.98,-74.53 -199.98,-192.7 0,-125.44 70.91,-196.35 199.98,-196.35 z m -139.98,-398.14 c -67.26,-30.9 -107.26,-89.08 -107.26,-156.35 0,-123.62 136.35,-163.62 281.79,-163.62 161.8,0 274.52,49.09 274.52,165.44 0,96.35 -72.72,141.8 -283.61,141.8 -63.63,0 -110.9,3.65 -165.44,12.73 z m 1.82,285.43 c -21.82,-18.19 -34.54,-52.73 -34.54,-78.18 0,-67.26 83.62,-85.44 227.24,-85.44 236.35,0 409.06,-45.46 409.06,-267.25 0,-216.34 -172.71,-307.24 -441.78,-307.24 -241.8,0 -425.41,74.53 -425.41,274.51 0,119.99 67.27,187.26 139.99,218.17 v 7.27 c -43.63,29.08 -67.27,72.72 -67.27,130.89 0,65.45 29.09,119.99 85.44,150.9 v 7.28 c -59.99,49.08 -105.44,123.62 -105.44,256.33 0,212.71 141.81,327.24 350.87,327.24 65.46,0 127.27,-12.72 178.17,-36.36 h 250.89 c 14.54,-32.72 21.81,-81.81 21.81,-125.44 h -141.8 v -7.27 c 25.45,-32.73 43.63,-81.81 43.63,-161.8 0,-201.81 -125.44,-323.6 -350.87,-323.6 -47.28,0 -98.17,5.45 -139.99,19.99"
         style="fill:#4b5859;fill-opacity:1;fill-rule:nonzero;stroke:none"
         id="path36" />
      <path
         d="m 8479.38,3100.64 c 16.37,9.09 41.82,12.73 80,12.73 38.18,0 61.82,-3.64 78.18,-12.73 v -858.1 c -16.36,-9.09 -40,-12.72 -78.18,-12.72 -38.18,0 -63.63,3.63 -80,12.72 z m 185.44,321.79 c 0,-70.91 -41.81,-109.08 -105.44,-109.08 -69.08,0 -105.44,36.36 -105.44,107.26 0,65.45 43.63,105.45 105.44,105.45 63.63,0 105.44,-36.36 105.44,-103.63"
         style="fill:#4b5859;fill-opacity:1;fill-rule:nonzero;stroke:none"
         id="path38" />
      <path
         d="m 9104.77,2242.54 c -16.36,-9.09 -39.99,-12.72 -78.17,-12.72 -38.18,0 -63.63,3.63 -80,12.72 v 856.28 c 30.91,16.37 78.18,25.46 129.08,25.46 l 10.91,-136.35 h 7.28 c 39.99,83.62 130.89,158.16 301.78,158.16 143.63,0 305.42,-50.9 305.42,-345.42 v -558.13 c -16.35,-9.09 -39.99,-12.72 -78.17,-12.72 -38.17,0 -63.62,3.63 -79.99,12.72 v 527.22 c 0,139.99 -45.45,229.07 -196.35,229.07 -129.07,0 -203.61,-67.26 -241.79,-139.99 v -616.3"
         style="fill:#4b5859;fill-opacity:1;fill-rule:nonzero;stroke:none"
         id="path40" />
      <path
         d="m 10295.6,2624.32 c 130.9,0 201.8,74.54 201.8,196.35 0,121.81 -72.8,192.7 -201.8,192.7 -132.7,0 -200,-74.53 -200,-192.7 0,-125.44 70.9,-196.35 200,-196.35 z m -140,-398.14 c -67.3,-30.9 -107.3,-89.08 -107.3,-156.35 0,-123.62 136.4,-163.62 281.8,-163.62 161.8,0 274.5,49.09 274.5,165.44 0,96.35 -72.7,141.8 -283.6,141.8 -63.6,0 -110.9,3.65 -165.4,12.73 z m 1.8,285.43 c -21.8,-18.19 -34.5,-52.73 -34.5,-78.18 0,-67.26 83.6,-85.44 227.2,-85.44 236.3,0 409.1,-45.46 409.1,-267.25 0,-216.34 -172.8,-307.24 -441.8,-307.24 -241.8,0 -425.43,74.53 -425.43,274.51 0,119.99 67.27,187.26 140.03,218.17 v 7.27 c -43.67,29.08 -67.31,72.72 -67.31,130.89 0,65.45 29.09,119.99 85.41,150.9 v 7.28 c -59.95,49.08 -105.4,123.62 -105.4,256.33 0,212.71 141.8,327.24 350.9,327.24 65.4,0 127.2,-12.72 178.1,-36.36 h 250.9 c 14.6,-32.72 21.8,-81.81 21.8,-125.44 h -141.8 v -7.27 c 25.5,-32.73 43.7,-81.81 43.7,-161.8 0,-201.81 -125.5,-323.6 -350.9,-323.6 -47.3,0 -98.2,5.45 -140,19.99"
         style="fill:#4b5859;fill-opacity:1;fill-rule:nonzero;stroke:none"
         id="path42" />
      <path
         d="M 4467.04,438.141 V 1692.57 c 16.36,9.09 43.63,12.73 83.62,12.73 40,0 65.45,-3.64 81.81,-12.73 V 587.219 h 618.13 c 9.09,-18.18 12.72,-43.629 12.72,-74.539 0,-30.91 -3.63,-56.36 -12.72,-74.539 h -783.56"
         style="fill:#4b5859;fill-opacity:1;fill-rule:nonzero;stroke:none"
         id="path44" />
      <path
         d="m 5941.45,818.109 c -45.46,16.36 -96.36,27.27 -158.17,27.27 -150.9,0 -229.08,-67.27 -229.08,-163.629 0,-94.531 76.36,-136.34 174.54,-136.34 78.17,0 165.43,25.449 212.71,94.539 z m 3.63,-309.058 c -52.72,-69.082 -136.35,-107.27 -256.34,-107.27 -156.35,0 -292.7,74.539 -292.7,272.711 0,212.699 158.16,299.969 363.6,299.969 60,0 129.08,-7.281 181.81,-29.09 v 47.258 c 0,150.901 -58.18,214.531 -199.99,214.531 -103.63,0 -201.8,-32.73 -278.15,-80 -12.73,45.46 -7.27,116.36 18.17,158.18 61.82,36.36 169.08,65.45 289.07,65.45 216.34,0 327.24,-92.73 327.24,-341.79 V 612.672 c 0,-52.723 27.27,-67.262 63.64,-67.262 34.54,0 67.26,12.719 85.44,25.449 3.64,-47.269 -7.28,-103.629 -30.91,-136.347 -30.91,-18.192 -70.9,-32.731 -119.99,-32.731 -81.81,0 -129.08,40 -143.62,107.27 h -7.27"
         style="fill:#4b5859;fill-opacity:1;fill-rule:nonzero;stroke:none"
         id="path46" />
      <path
         d="m 6568.68,559.949 c 36.36,-12.73 90.9,-20 143.62,-20 234.53,0 323.61,139.992 323.61,349.063 0,209.068 -89.08,316.338 -247.25,316.338 -114.53,0 -176.35,-58.19 -219.98,-121.81 z m 0,872.641 c 0,-74.54 -3.63,-159.98 -12.72,-229.07 h 7.26 c 34.55,81.82 119.99,147.27 267.26,147.27 187.24,0 367.23,-112.73 367.23,-443.61 0,-336.321 -179.99,-505.399 -487.23,-505.399 -99.98,0 -209.07,18.188 -299.97,56.36 V 1739.84 c 36.36,21.81 90.9,34.54 158.17,34.54 v -341.79"
         style="fill:#4b5859;fill-opacity:1;fill-rule:nonzero;stroke:none"
         id="path48" />
      <path
         d="m 7790.39,539.949 c 169.07,0 252.71,130.903 252.71,349.063 0,199.978 -92.73,323.598 -252.71,323.598 -170.9,0 -254.52,-125.44 -254.52,-323.598 0,-219.981 85.44,-349.063 254.52,-349.063 z m 414.5,349.063 c 0,-316.34 -158.16,-487.231 -414.5,-487.231 -269.07,0 -416.33,163.629 -416.33,487.231 0,290.878 163.63,461.778 416.33,461.778 252.71,0 414.5,-161.81 414.5,-461.778"
         style="fill:#4b5859;fill-opacity:1;fill-rule:nonzero;stroke:none"
         id="path50" />
      <path
         d="m 8846.65,1350.79 c 40,0 74.54,-5.46 94.53,-16.37 14.55,-25.45 23.64,-56.36 23.64,-101.81 0,-32.72 -5.45,-54.54 -10.9,-67.26 -29.1,16.35 -69.09,27.26 -112.72,27.26 -110.91,0 -189.07,-70.9 -234.53,-205.43 V 447.23 c -16.36,-9.089 -39.99,-12.718 -78.16,-12.718 -38.19,0 -63.64,3.629 -80,12.718 v 856.28 c 30.9,16.37 78.17,25.46 129.08,25.46 l 12.72,-159.99 h 7.28 c 38.17,109.08 109.08,181.81 249.06,181.81"
         style="fill:#4b5859;fill-opacity:1;fill-rule:nonzero;stroke:none"
         id="path52" />
      <path
         d="m 9588.42,818.109 c -45.45,16.36 -96.36,27.27 -158.18,27.27 -150.88,0 -229.06,-67.27 -229.06,-163.629 0,-94.531 76.36,-136.34 174.52,-136.34 78.19,0 165.44,25.449 212.72,94.539 z m 3.63,-309.058 c -52.72,-69.082 -136.35,-107.27 -256.34,-107.27 -156.34,0 -292.69,74.539 -292.69,272.711 0,212.699 158.16,299.969 363.59,299.969 60,0 129.08,-7.281 181.81,-29.09 v 47.258 c 0,150.901 -58.18,214.531 -199.98,214.531 -103.64,0 -201.81,-32.73 -278.16,-80 -12.73,45.46 -7.27,116.36 18.18,158.18 61.81,36.36 169.08,65.45 289.06,65.45 216.35,0 327.25,-92.73 327.25,-341.79 V 612.672 c 0,-52.723 27.26,-67.262 63.63,-67.262 34.54,0 67.25,12.719 85.44,25.449 3.64,-47.269 -7.27,-103.629 -30.91,-136.347 -30.9,-18.192 -70.9,-32.731 -119.98,-32.731 -81.82,0 -129.08,40 -143.62,107.27 h -7.28"
         style="fill:#4b5859;fill-opacity:1;fill-rule:nonzero;stroke:none"
         id="path54" />
      <path
         d="m 10077.5,1314.42 v 199.99 c 38.2,30.9 98.2,47.27 158.2,49.08 v -249.07 h 267.2 c 7.3,-14.54 10.9,-38.17 10.9,-70.9 0,-32.72 -3.6,-58.17 -10.9,-72.72 h -267.2 V 703.57 c 0,-98.16 25.4,-154.531 134.5,-154.531 54.5,0 120,20 174.5,65.453 7.3,-56.363 -10.9,-129.082 -38.2,-161.801 -47.2,-32.722 -105.4,-50.91 -183.6,-50.91 -174.5,0 -245.4,90.899 -245.4,281.789 v 487.23 h -134.54 c 0,54.54 7.27,105.45 21.82,143.62 h 112.72"
         style="fill:#4b5859;fill-opacity:1;fill-rule:nonzero;stroke:none"
         id="path56" />
      <path
         d="m 11072,539.949 c 169,0 252.7,130.903 252.7,349.063 0,199.978 -92.8,323.598 -252.7,323.598 -170.9,0 -254.6,-125.44 -254.6,-323.598 0,-219.981 85.5,-349.063 254.6,-349.063 z m 414.5,349.063 c 0,-316.34 -158.2,-487.231 -414.5,-487.231 -269.1,0 -416.4,163.629 -416.4,487.231 0,290.878 163.6,461.778 416.4,461.778 252.7,0 414.5,-161.81 414.5,-461.778"
         style="fill:#4b5859;fill-opacity:1;fill-rule:nonzero;stroke:none"
         id="path58" />
      <path
         d="m 12128.2,1350.79 c 40,0 74.6,-5.46 94.6,-16.37 14.5,-25.45 23.6,-56.36 23.6,-101.81 0,-32.72 -5.5,-54.54 -10.9,-67.26 -29.1,16.35 -69.1,27.26 -112.7,27.26 -110.9,0 -189.1,-70.9 -234.6,-205.43 V 447.23 c -16.3,-9.089 -39.9,-12.718 -78.1,-12.718 -38.2,0 -63.7,3.629 -80,12.718 v 856.28 c 30.9,16.37 78.2,25.46 129.1,25.46 l 12.7,-159.99 h 7.3 c 38.1,109.08 109,181.81 249,181.81"
         style="fill:#4b5859;fill-opacity:1;fill-rule:nonzero;stroke:none"
         id="path60" />
      <path
         d="m 12744.5,514.5 c 10.9,74.539 27.3,149.082 47.3,205.441 l 201.8,590.849 c 12.7,5.46 30.9,10.91 63.6,10.91 43.7,0 70.9,-9.1 90.9,-21.82 L 13010,910.828 C 12944.5,725.391 12866.3,509.051 12790,365.43 12691.8,179.988 12571.8,65.4492 12370,0.0117188 12330,30.9102 12306.4,74.5391 12300.9,129.082 c 174.6,49.09 281.8,156.348 347.3,279.977 l -349.1,890.821 c 20,12.72 54.6,21.82 96.4,21.82 32.7,0 52.7,-5.45 63.6,-10.91 l 225.4,-590.849 c 20,-52.73 40,-132.722 52.8,-205.441 h 7.2"
         style="fill:#4b5859;fill-opacity:1;fill-rule:nonzero;stroke:none"
         id="path62" />
    </g>
  </g>
</svg>
